# xmcd
#
# Track frame offsets:
# 150
# 14115
# 24324
# 36253
# 46636
# 58834
# 68740
# 80264
# 85806
# 94993
# 102109
# 113419
# 122736
#
# Disc length: 1775 seconds
#
#
# Revision: 1
# Processed by: cddbd v1.5.2PL0 Copyright (c) Steve Scherf et al.
# Submitted via: FreeRIP 2.30
#
DISCID=9c06ed0d
DTITLE=Willie Nelson - Diamonds In The Rough
DYEAR=1998
DGENRE=Country
TTITLE0=No Tomorrow In Sight
TTITLE1=A New Way To Cry
TTITLE2=I`ll Stay Around
TTITLE3=Broken Promises
TTITLE4=Happiness Lives Next Door
TTITLE5=Let`s Pretend
TTITLE6=I`m Gonna Lose A Lot Of Teardrops
TTITLE7=The Ghost
TTITLE8=Waiting Time
TTITLE9=Both Ends Of The Candle
TTITLE10=Go Away
TTITLE11=Right From Wrong
TTITLE12=Pride Wins Again
EXTD=
EXTT0=
EXTT1=
EXTT2=
EXTT3=
EXTT4=
EXTT5=
EXTT6=
EXTT7=
EXTT8=
EXTT9=
EXTT10=
EXTT11=
EXTT12=
PLAYORDER=
